<svg version="1.1" viewBox="0.0 0.0 963.0 100.0" fill="none" stroke="none" stroke-linecap="square" stroke-miterlimit="10" xmlns:xlink="http://www.w3.org/1999/xlink" xmlns="http://www.w3.org/2000/svg"><clipPath id="p.0"><path d="m0 0l963.0 0l0 100.0l-963.0 0l0 -100.0z" clip-rule="nonzero"/></clipPath><g clip-path="url(#p.0)"><path fill="#000000" fill-opacity="0.0" d="m0 0l963.0 0l0 100.0l-963.0 0z" fill-rule="evenodd"/><path fill="#4c7a91" d="m961.1419 0l-43.73224 47.68504l-43.7323 -47.68504z" fill-rule="evenodd"/><path fill="#4c7a91" d="m873.6816 0l-43.7323 47.68504l-43.73224 -47.68504z" fill-rule="evenodd"/><path fill="#4c7a91" d="m786.22125 0l-43.7323 47.68504l-43.7323 -47.68504z" fill-rule="evenodd"/><path fill="#4c7a91" d="m698.788 0l-43.7323 47.68504l-43.73224 -47.68504z" fill-rule="evenodd"/><path fill="#4c7a91" d="m611.30054 0l-43.73224 47.68504l-43.7323 -47.68504z" fill-rule="evenodd"/><path fill="#4c7a91" d="m173.8361 0l-43.73227 47.68504l-43.732292 -47.68504z" fill-rule="evenodd"/><path fill="#4c7a91" d="m261.3507 0l-43.732285 47.68504l-43.732285 -47.68504z" fill-rule="evenodd"/><path fill="#4c7a91" d="m348.8653 0l-43.7323 47.68504l-43.73227 -47.68504z" fill-rule="evenodd"/><path fill="#4c7a91" d="m436.37988 0l-43.73227 47.68504l-43.7323 -47.68504z" fill-rule="evenodd"/><path fill="#4c7a91" d="m523.8945 0l-43.73227 47.68504l-43.7323 -47.68504z" fill-rule="evenodd"/><path fill="#4c7a91" d="m86.321526 0l-43.73229 47.68504l-43.73228 -47.68504z" fill-rule="evenodd"/></g></svg>