<svg version="1.1" viewBox="0.0 0.0 963.0 100.0" fill="none" stroke="none" stroke-linecap="square" stroke-miterlimit="10" xmlns:xlink="http://www.w3.org/1999/xlink" xmlns="http://www.w3.org/2000/svg"><clipPath id="p.0"><path d="m0 0l963.0 0l0 100.0l-963.0 0l0 -100.0z" clip-rule="nonzero"/></clipPath><g clip-path="url(#p.0)"><path fill="#000000" fill-opacity="0.0" d="m0 0l963.0 0l0 100.0l-963.0 0z" fill-rule="evenodd"/><path fill="#4c7a91" d="m0.35695538 100.0l43.73228 -47.68504l43.73229 47.68504z" fill-rule="evenodd"/><path fill="#4c7a91" d="m87.8173 100.0l43.732277 -47.68504l43.732285 47.68504z" fill-rule="evenodd"/><path fill="#4c7a91" d="m175.27763 100.0l43.732285 -47.68504l43.7323 47.68504z" fill-rule="evenodd"/><path fill="#4c7a91" d="m262.71085 100.0l43.7323 -47.68504l43.73227 47.68504z" fill-rule="evenodd"/><path fill="#4c7a91" d="m350.19833 100.0l43.73227 -47.68504l43.73227 47.68504z" fill-rule="evenodd"/><path fill="#4c7a91" d="m787.6628 100.0l43.7323 -47.68504l43.73224 47.68504z" fill-rule="evenodd"/><path fill="#4c7a91" d="m700.1482 100.0l43.7323 -47.68504l43.73224 47.68504z" fill-rule="evenodd"/><path fill="#4c7a91" d="m612.6336 100.0l43.73224 -47.68504l43.7323 47.68504z" fill-rule="evenodd"/><path fill="#4c7a91" d="m525.119 100.0l43.73224 -47.68504l43.7323 47.68504z" fill-rule="evenodd"/><path fill="#4c7a91" d="m437.6044 100.0l43.7323 -47.68504l43.73227 47.68504z" fill-rule="evenodd"/><path fill="#4c7a91" d="m875.17737 100.0l43.7323 -47.68504l43.73224 47.68504z" fill-rule="evenodd"/></g></svg>