<?xml version="1.0" encoding="utf-8"?>
<!-- Generator: Adobe Illustrator 23.0.2, SVG Export Plug-In . SVG Version: 6.00 Build 0)  -->
<svg version="1.1" id="Layer_1" xmlns="http://www.w3.org/2000/svg" xmlns:xlink="http://www.w3.org/1999/xlink" x="0px" y="0px"
	 viewBox="0 0 1921 336.63" style="enable-background:new 0 0 1921 336.63;" xml:space="preserve">
<style type="text/css">
	.st0{fill:#4C7A91;stroke:#4C7A91;stroke-miterlimit:10;}
</style>
<polygon class="st0" points="0.5,181.5 0.5,0.5 1920.5,0.5 1920.5,171.5 1852.5,91.5 1716.5,259.5 1668.5,89.5 1594.5,291.5 
	1566.5,157.5 1526.5,209.5 1476.5,125.5 1326.5,255.5 1228.5,87.5 1208.5,146.5 1122.5,69.5 1070.5,219.5 960.5,57.5 870.5,269.5 
	806.5,146.5 706.5,335.5 596.5,93.5 518.5,185.5 464.5,57.5 326.5,255.5 226.5,73.5 202.5,168.5 160.5,109.5 56.5,219.5 20.5,85.5 
	"/>
</svg>
